<svg xmlns="http://www.w3.org/2000/svg" viewBox="0 0 210.83 288.1"><defs><style>.cls-1{fill:#fff;}</style></defs><title>Fichier 1</title><g id="Calque_2" data-name="Calque 2"><g id="Calque_1-2" data-name="Calque 1"><path class="cls-1" d="M210.83,5.1l-4.37,23.81c-5-1-9.6-2.25-14.28-2.83-22.72-2.82-36.81,7.6-40.66,30.31a120.75,120.75,0,0,0-1.65,19.86q-.19,87.46-.07,174.92c0,2.16,0,4.31,0,6.88H117.28c-.09-1.7-.28-3.45-.28-5.21q0-89,0-177.92c0-12.73,1.74-25.25,6.58-37.14,9.34-23,27.09-34.67,51.19-37.3A75.56,75.56,0,0,1,210.83,5.1Z"/><path class="cls-1" d="M3.7,288.1,0,263.17c3-.38,5.48-.63,7.91-1,25.59-4.09,37.27-16.64,39.42-43.07,1-11.94,1.55-23.94,1.6-35.91C49.1,137.35,49,91.53,49,45.7c0-2.16,0-4.31,0-6.87H82.16v5.25c0,52.66.1,105.31-.07,158,0,13.84-1.41,27.62-6,40.84-9.12,26.46-29.5,38.68-55.59,43.4C15.18,287.25,9.7,287.47,3.7,288.1Z"/></g></g></svg>